/* XPM */
static char *_2[] = {
/* columns rows colors chars-per-pixel */
"32 32 238 2 ",
"   c #D30000",
".  c #D40000",
"X  c #D60B0B",
"o  c #D70F0F",
"O  c #D91010",
"+  c #DA1212",
"@  c #D91616",
"#  c #DA1919",
"$  c #D91A1A",
"%  c #D91D1D",
"&  c #D81F1F",
"*  c #DA1E1E",
"=  c #DC1F1F",
"-  c #DB2323",
";  c #DC2222",
":  c #DC2323",
">  c #DA2424",
",  c #DB2727",
"<  c #DC2424",
"1  c #D92929",
"2  c #DB2828",
"3  c #DA2A2A",
"4  c #DB2B2B",
"5  c #DD2828",
"6  c #DD2929",
"7  c #DD2B2B",
"8  c #DB2C2C",
"9  c #DC2C2C",
"0  c #DD2D2D",
"q  c #DE2C2C",
"w  c #DE2D2D",
"e  c #DD2E2E",
"r  c #DE2E2E",
"t  c #DE2F2F",
"y  c #DE3030",
"u  c #DE3131",
"i  c #DE3232",
"p  c #DF3232",
"a  c #DE3333",
"s  c #DC3535",
"d  c #DE3434",
"f  c #DE3535",
"g  c #DC3737",
"h  c #DE3636",
"j  c #DF3636",
"k  c #DE3737",
"l  c #DF3737",
"z  c #DA3B3B",
"x  c #DC3939",
"c  c #DE3838",
"v  c #DF3838",
"b  c #DF3939",
"n  c #DC3B3A",
"m  c #DC3B3B",
"M  c #DD3B3B",
"N  c #DB3C3C",
"B  c #DB3E3E",
"V  c #DD3C3C",
"C  c #DE3C3C",
"Z  c #DF3C3C",
"A  c #DF3D3D",
"S  c #DD3E3E",
"D  c #DF3E3E",
"F  c #DF3F3F",
"G  c #E03939",
"H  c #E03D3D",
"J  c #E03F3F",
"K  c #DD4141",
"L  c #DF4141",
"P  c #DD4343",
"I  c #DE4242",
"U  c #DF4242",
"Y  c #DD4444",
"T  c #DD4646",
"R  c #DE4747",
"E  c #DD4949",
"W  c #DE4A4A",
"Q  c #DF4D4D",
"!  c #DF5151",
"~  c #DF5353",
"^  c #DF5858",
"/  c #E04141",
"(  c #E04242",
")  c #E04343",
"_  c #E04444",
"`  c #E04545",
"'  c #E04646",
"]  c #E04747",
"[  c #E04848",
"{  c #E14848",
"}  c #E04949",
"|  c #E04A4A",
" . c #E14B4B",
".. c #E04D4D",
"X. c #E14D4D",
"o. c #E04E4E",
"O. c #E14E4E",
"+. c #E04F4F",
"@. c #E14F4F",
"#. c #E15050",
"$. c #E15151",
"%. c #E15252",
"&. c #E25252",
"*. c #E15454",
"=. c #E15555",
"-. c #E25555",
";. c #E15656",
":. c #E15757",
">. c #E25656",
",. c #E25757",
"<. c #E05858",
"1. c #E25858",
"2. c #E25A5A",
"3. c #E25B5B",
"4. c #E35B5B",
"5. c #E15D5C",
"6. c #E25C5C",
"7. c #E25D5D",
"8. c #E15E5E",
"9. c #E05F5F",
"0. c #E25E5E",
"q. c #E25F5F",
"w. c #E35F5F",
"e. c #E16161",
"r. c #E26060",
"t. c #E36161",
"y. c #E16262",
"u. c #E36262",
"i. c #E36363",
"p. c #E36464",
"a. c #E36565",
"s. c #E36666",
"d. c #E26767",
"f. c #E36767",
"g. c #E46666",
"h. c #E36868",
"j. c #E36969",
"k. c #E36A6A",
"l. c #E46969",
"z. c #E46A6A",
"x. c #E46B6B",
"c. c #E36C6C",
"v. c #E46C6C",
"b. c #E46D6D",
"n. c #E46E6E",
"m. c #E46F6F",
"M. c #E37171",
"N. c #E47070",
"B. c #E57070",
"V. c #E47171",
"C. c #E47272",
"Z. c #E57272",
"A. c #E47373",
"S. c #E57373",
"D. c #E67272",
"F. c #E47474",
"G. c #E57474",
"H. c #E47575",
"J. c #E57575",
"K. c #E57676",
"L. c #E47777",
"P. c #E57777",
"I. c #E57878",
"U. c #E57979",
"Y. c #E67979",
"T. c #E57A7A",
"R. c #E57B7B",
"E. c #E47C7C",
"W. c #E57C7C",
"Q. c #E57D7D",
"!. c #E67C7C",
"~. c #E57E7E",
"^. c #E57F7F",
"/. c #E67E7E",
"(. c #E67F7F",
"). c #E68080",
"_. c #E68181",
"`. c #E58282",
"'. c #E68383",
"]. c #E68585",
"[. c #E78585",
"{. c #E68686",
"}. c #E88383",
"|. c #E88484",
" X c #E68888",
".X c #E78B8B",
"XX c #E78C8C",
"oX c #EA8989",
"OX c #E88C8C",
"+X c #E88D8D",
"@X c #EB8C8C",
"#X c #E99191",
"$X c #E99696",
"%X c #EA9797",
"&X c #EA9F9F",
"*X c #ECA6A6",
"=X c #ECA7A7",
"-X c #EBAAAA",
";X c #EDAEAE",
":X c #EFB4B4",
">X c #EEBABA",
",X c #F0C3C3",
"<X c #F0C6C6",
"1X c #F1C9C9",
"2X c #F2C9C9",
"3X c #F3CCCC",
"4X c #F4CECE",
"5X c #F4D1D1",
"6X c #F4DCDC",
"7X c #F4DDDD",
"8X c #F5DEDE",
"9X c #F6EEEE",
"0X c #F9E8E8",
"qX c #F9EFEF",
"wX c #F6F1F1",
"eX c #F7F1F1",
"rX c #F7F2F2",
"tX c #F9F3F3",
"yX c #F9F4F4",
"uX c #F8F6F6",
"iX c #F9F8F8",
"pX c #F9F9F9",
"aX c #F8FBFB",
"sX c #F9FBFB",
"dX c #FBFAFA",
"fX c #FAFCFC",
"gX c #FBFCFC",
"hX c #FBFDFD",
"jX c #F9FEFD",
"kX c #FBFEFE",
"lX c #FAFFFF",
"zX c #FBFFFF",
"xX c #FDFEFE",
"cX c #FCFFFF",
"vX c #FDFFFF",
"bX c #FEFFFF",
"nX c white",
"mX c None",
/* pixels */
"mXmXmXmXmXmXmXmXmXmXmXmXmXmXmXmXmXmXmXmXmXmXmXmXmXmXmXmXmXmXmXmX",
"mXmXmXmXmXmXmXmXmXmXmXmXmXmXmXmXmXmXmXmXmXmXmXmXmXmXmXmXmXmXmXmX",
"mXmXmXmXmXmXmXmXmXmXmXmXmXmXmXmXmXmXmXmXmXmXmXmXmXmXmXmXmXmXmXmX",
"mXmXmXmXmXmXmXmXmXmXmXmXmXmXmXmXmXmXmXmXmXmXmXmXmXmXmXmXmXmXmXmX",
"mXmXmXmXmXmXmXmXmXmXmXmXmXmXj j M j mXmXmXmXmXmXmXmXmXmXmXmXmXmX",
"mXmXmXmXmXmXmXmXmXmXmXa U ,.r.b.x.6.,. .j mXmXmXmXmXmXmXmXmXmXmX",
"mXmXmXmXmXmXmXmXmXa D r.W.U.v.6.r.L.(.(.c.] a mXmXmXmXmXmXmXmXmX",
"mXmXmXmXmXmXmXmXa [ U.(.,.H a H g.x.O.) x.(.2.a mXmXmXmXmXmXmXmX",
"mXmXmXmXmXmXmXa  .].c.D t 4 4 z %. .t a ,.L.).6.a mXmXmXmXmXmXmX",
"mXmXmXmXmXmXa ) (.p.t q 9  X3X1X2.O % T x.) ] (.,.a mXmXmXmXmXmX",
"mXmXmXmXmXmXj Z.Z.t t ,.T ;XbXbXq.% OX6X,.% %.L.U.] mXmXmXmXmXmX",
"mXmXmXmXmXa %.).D j g.U.- OXbXaX1XjXbXbXO.,.Z.) x.p.j mXmXmXmXmX",
"mXmXmXmXmXj x.p.U A.h.D % :XbXuXbXaX@XM 6.c.k M x.U.) mXmXmXmXmX",
"mXmXmXmXmX) Z.x.c.2.q s jXbXaXbX}.. % }.3.q  .Z.6.b.,.a mXmXmXmX",
"mXmXmXmXmXO.U.h. .t ; r.wX6XjXgXA.(.bXbX6.E U.O.j Z.t.j mXmXmXmX",
"mXmXmXmXa ,.L.D q M g.r.  |.bXuXbXbXtX.XN T U D p.U.t.M mXmXmXmX",
"mXmXmXmXa 2.b.t [ Z.b.F OXqXjXjX5XZ.M N L.g.T Z.3.r.x.M mXmXmXmX",
"mXmXmXmXa ,.Z.2.A.r.- E bXbXaXbX6.4 z >XbXjXB.O.q 6.x.G mXmXmXmX",
"mXmXmXmXmXO.U.b.O.q t 6.U.=XbXjX'.,.4 ,XbX9XU , E P.w.a mXmXmXmX",
"mXmXmXmXmX) U.%.- U b.x.X #XbXbX!.o D iXbX,X$ ,.Z.U.%.a mXmXmXmX",
"mXmXmXmXmXj x.p.E L.g.G @ &XbXjXp.  -XbXbXOXU h.t.L.) mXmXmXmXmX",
"mXmXmXmXmXa O.(.b.%.t ] Y &XbXbXA.(.jXbXwX^ 6.D b.t.a mXmXmXmXmX",
"mXmXmXmXmXmXj v.b.G  .U.M $XbXaXwXbXbXbX(.M a ,.).) mXmXmXmXmXmX",
"mXmXmXmXmXmXmX) L.Z.x.[ o *XbXjXbXbXtX)., t O.].%.a mXmXmXmXmXmX",
"mXmXmXmXmXmXmXa ] (.b.H e $X0X8X1X*X,.$ a 6.].2.t mXmXmXmXmXmXmX",
"mXmXmXmXmXmXmXmXa ] Z.).L.E j Q ! M j O.L.(.,.a mXmXmXmXmXmXmXmX",
"mXmXmXmXmXmXmXmXmXa D 2.Z.L.g.Z.L.b.Z.(.g.) a mXmXmXmXmXmXmXmXmX",
"mXmXmXmXmXmXmXmXmXmXmXa D %.6.r.t.t.,.) a mXmXmXmXmXmXmXmXmXmXmX",
"mXmXmXmXmXmXmXmXmXmXmXmXmXmXa j j j mXmXmXmXmXmXmXmXmXmXmXmXmXmX",
"mXmXmXmXmXmXmXmXmXmXmXmXmXmXmXmXmXmXmXmXmXmXmXmXmXmXmXmXmXmXmXmX",
"mXmXmXmXmXmXmXmXmXmXmXmXmXmXmXmXmXmXmXmXmXmXmXmXmXmXmXmXmXmXmXmX",
"mXmXmXmXmXmXmXmXmXmXmXmXmXmXmXmXmXmXmXmXmXmXmXmXmXmXmXmXmXmXmXmX"
};
