/* XPM */
static char *_4[] = {
/* columns rows colors chars-per-pixel */
"64 64 131 2 ",
"   c #CF0000",
".  c #D30000",
"X  c #D71212",
"o  c #D91515",
"O  c #D61B1B",
"+  c #D91C1C",
"@  c #D62222",
"#  c #DA2323",
"$  c #D72A2A",
"%  c #DC2B2B",
"&  c #DE3333",
"*  c #DF3B3B",
"=  c #E03737",
"-  c #E03C3C",
";  c #DE4343",
":  c #DD4B4B",
">  c #DF5252",
",  c #DF5B5B",
"<  c #E04444",
"1  c #E04C4C",
"2  c #E15454",
"3  c #E25C5C",
"4  c #E36464",
"5  c #E36C6C",
"6  c #E46C6C",
"7  c #E46D6D",
"8  c #E46E6E",
"9  c #E46E6F",
"0  c #E46F6F",
"q  c #E46B6B",
"w  c #E27272",
"e  c #E47070",
"r  c #E57070",
"t  c #E47171",
"y  c #E47272",
"u  c #E57272",
"i  c #E47373",
"p  c #E57373",
"a  c #E47474",
"s  c #E57474",
"d  c #E47575",
"f  c #E57575",
"g  c #E47676",
"h  c #E57676",
"j  c #E47777",
"k  c #E57777",
"l  c #E77777",
"z  c #E57474",
"x  c #E47878",
"c  c #E57878",
"v  c #E57979",
"b  c #E57A7A",
"n  c #E57979",
"m  c #E68181",
"M  c #E58383",
"N  c #E78181",
"B  c #E78989",
"V  c #EB8A8A",
"C  c #E88F8F",
"Z  c #E88888",
"A  c #E89191",
"S  c #E99797",
"D  c #EA9797",
"F  c #E99292",
"G  c #EA9898",
"H  c #EB9999",
"J  c #EA9A9A",
"K  c #EB9A9A",
"L  c #EB9F9F",
"P  c #EA9C9C",
"I  c #EDA1A1",
"U  c #EBA3A3",
"Y  c #ECA8A8",
"T  c #EFABAB",
"R  c #EDACAC",
"E  c #EEAEAE",
"W  c #EFAFAF",
"Q  c #EEB4B4",
"!  c #EFBABA",
"~  c #EFBEBE",
"^  c #EEBBBA",
"/  c #F0B1B1",
"(  c #F1BABA",
")  c #F1C1C1",
"_  c #F1C2C2",
"`  c #F3CDCD",
"'  c #F2CBCB",
"]  c #F2D0D0",
"[  c #F3D0D0",
"{  c #F5D6D6",
"}  c #F4D1D1",
"|  c #F4DBDB",
" . c #F4DCDC",
".. c #F7E3E3",
"X. c #F6E4E4",
"o. c #F7E4E4",
"O. c #F6E2E2",
"+. c #F7E9E9",
"@. c #F7EAEA",
"#. c #F7ECEC",
"$. c #F7EBEB",
"%. c #F8EBEB",
"&. c #F8EDED",
"*. c #F8EDED",
"=. c #F7F0F0",
"-. c #F9F1F1",
";. c #F9F7F7",
":. c #F9F3F3",
">. c #F8F8F8",
",. c #F9F8F8",
"<. c #F8F9F9",
"1. c #F9F9F9",
"2. c #F9FAFA",
"3. c #F9FBFB",
"4. c #F9FCFC",
"5. c #F9FDFD",
"6. c #FAFCFC",
"7. c #FBFCFC",
"8. c #F9FEFE",
"9. c #FAFEFE",
"0. c #FBFEFE",
"q. c #FAFFFF",
"w. c #FBFFFF",
"e. c #FDFEFE",
"r. c #FCFFFF",
"t. c #FDFFFF",
"y. c #FEFFFF",
"u. c white",
"i. c #FBFCFC",
"p. c None",
"a. c black",
/* pixels */
"p.p.p.p.p.p.p.p.p.p.p.p.p.p.p.p.p.p.p.p.p.p.p.p.p.p.p.p.p.p.p.p.p.p.p.p.p.p.p.p.p.p.p.p.p.p.p.p.p.p.p.p.p.p.p.p.p.p.p.p.p.p.p.p.",
"p.p.p.p.p.p.p.p.p.p.p.p.p.p.p.p.p.p.p.p.p.p.p.p.p.p.p.p.p.p.p.p.p.p.p.p.p.p.p.p.p.p.p.p.p.p.p.p.p.p.p.p.p.p.p.p.p.p.p.p.p.p.p.p.",
"p.p.p.p.p.p.p.p.p.p.p.p.p.p.p.p.p.p.p.p.p.p.p.p.p.p.p.p.p.p.p.p.p.p.p.p.p.p.p.p.p.p.p.p.p.p.p.p.p.p.p.p.p.p.p.p.p.p.p.p.p.p.p.p.",
"p.p.p.p.p.p.p.p.p.p.p.p.p.p.p.p.p.p.p.p.p.p.p.p.p.p.p.p.p.p.p.p.p.p.p.p.p.p.p.p.p.p.p.p.p.p.p.p.p.p.p.p.p.p.p.p.p.p.p.p.p.p.p.p.",
"p.p.p.p.p.p.p.p.p.p.p.p.p.p.p.p.p.p.p.p.p.p.p.p.p.p.p.p.p.p.p.p.p.p.p.p.p.p.p.p.p.p.p.p.p.p.p.p.p.p.p.p.p.p.p.p.p.p.p.p.p.p.p.p.",
"p.p.p.p.p.p.p.p.p.p.p.p.p.p.p.p.p.p.p.p.p.p.p.p.p.p.p.p.p.p.p.p.p.p.p.p.p.p.p.p.p.p.p.p.p.p.p.p.p.p.p.p.p.p.p.p.p.p.p.p.p.p.p.p.",
"p.p.p.p.p.p.p.p.p.p.p.p.p.p.p.p.p.p.p.p.p.p.p.p.p.p.p.p.p.p.p.p.p.p.p.p.p.p.p.p.p.p.p.p.p.p.p.p.p.p.p.p.p.p.p.p.p.p.p.p.p.p.p.p.",
"p.p.p.p.p.p.p.p.p.p.p.p.p.p.p.p.p.p.p.p.p.p.p.p.p.p.p.p.p.p.p.p.p.p.p.p.p.p.p.p.p.p.p.p.p.p.p.p.p.p.p.p.p.p.p.p.p.p.p.p.p.p.p.p.",
"p.p.p.p.p.p.p.p.p.p.p.p.p.p.p.p.p.p.p.p.p.p.p.p.p.p.p.p.p.p.* * = * * p.p.p.p.p.p.p.p.p.p.p.p.p.p.p.p.p.p.p.p.p.p.p.p.p.p.p.p.p.",
"p.p.p.p.p.p.p.p.p.p.p.p.p.p.p.p.p.p.p.p.p.p.p.p.p.p.* * & & & & & & & & & * * p.p.p.p.p.p.p.p.p.p.p.p.p.p.p.p.p.p.p.p.p.p.p.p.p.",
"p.p.p.p.p.p.p.p.p.p.p.p.p.p.p.p.p.p.p.p.p.p.p.* = & & * 1 2 2 3 3 2 2 2 1 * & & = p.p.p.p.p.p.p.p.p.p.p.p.p.p.p.p.p.p.p.p.p.p.p.",
"p.p.p.p.p.p.p.p.p.p.p.p.p.p.p.p.p.p.p.p.p.* * & * 2 4 6 w l l g l v l l y q 3 : * & * p.p.p.p.p.p.p.p.p.p.p.p.p.p.p.p.p.p.p.p.p.",
"p.p.p.p.p.p.p.p.p.p.p.p.p.p.p.p.p.p.p.* = & * 2 6 g l w l l l l g w 8 w 6 l g l 4 2 * & * p.p.p.p.p.p.p.p.p.p.p.p.p.p.p.p.p.p.p.",
"p.p.p.p.p.p.p.p.p.p.p.p.p.p.p.p.p.p.- & & 2 y v l l l 8 4 3 > 1 ; 2 8 q q l l l l l q ; % * p.p.p.p.p.p.p.p.p.p.p.p.p.p.p.p.p.p.",
"p.p.p.p.p.p.p.p.p.p.p.p.p.p.p.p.p.* & * 4 v y l l 4 > * & & % % < 3 4 4 q 2 1 4 g y l l 3 & & * p.p.p.p.p.p.p.p.p.p.p.p.p.p.p.p.",
"p.p.p.p.p.p.p.p.p.p.p.p.p.p.p.p.* & < y v y v 4 ; & & & * * < 4 l q 6 q : & & * : 4 w y v 4 * & - p.p.p.p.p.p.p.p.p.p.p.p.p.p.p.",
"p.p.p.p.p.p.p.p.p.p.p.p.p.p.p.* & < w l l w 1 & & * * * * ; , 3 3 4 4 * & * * & % 3 6 y e c q & & * p.p.p.p.p.p.p.p.p.p.p.p.p.p.",
"p.p.p.p.p.p.p.p.p.p.p.p.p.p.- & ; l y g q ; & = * * * O O @ O O $ : = & * * & : q q 4 6 y w v q * & p.p.p.p.p.p.p.p.p.p.p.p.p.p.",
"p.p.p.p.p.p.p.p.p.p.p.p.p.- & * 6 g l q * & * * * & ; C J J S K q # * * & * > 4 4 6 6 1 < y y l 3 & * p.p.p.p.p.p.p.p.p.p.p.p.p.",
"p.p.p.p.p.p.p.p.p.p.p.p.p.* & 4 v l q * & - - & * : : 6.6.u.6.u./ o * * ; * $ * : 3 < & % < y y b 2 & * p.p.p.p.p.p.p.p.p.p.p.p.",
"p.p.p.p.p.p.p.p.p.p.p.p.* % 2 v y y ; & * * & < 6 3 ; @.6.2.2.u.I + & @ @ ; b { 8 @ & & & 2 q y l w - & p.p.p.p.p.p.p.p.p.p.p.p.",
"p.p.p.p.p.p.p.p.p.p.p.* * * 8 y l 1 & * & * 3 6 6 > : @.6.2.;.u.K . $ 8 Q #.u.u.4 + & < 4 6 4 y w l 3 & - p.p.p.p.p.p.p.p.p.p.p.",
"p.p.p.p.p.p.p.p.p.p.p.* & 2 v l 4 & & & < 4 6 q y : ; #.6.2.2.u.Y 8 ] 6.u.6.6.u.q + 1 q 6 q q 2 q y l : & p.p.p.p.p.p.p.p.p.p.p.",
"p.p.p.p.p.p.p.p.p.p.p.* - y w l < % * 2 q q q q > % ; *.6.2.;.2.2.6.u.6.6.u.u.X.: ; 6 q 6 4 < % 1 l v 3 & - p.p.p.p.p.p.p.p.p.p.",
"p.p.p.p.p.p.p.p.p.p.* & 2 l l 3 % < 4 6 q 6 4 < & o $ @.6.2.2.2.6.6.u.u.6.` l 1 3 w q 6 3 * % & 2 y y 6 < & p.p.p.p.p.p.p.p.p.p.",
"p.p.p.p.p.p.p.p.p.p.* & 4 v 8 ; 1 q q q 6 2 * % + 1 L ;.2.;.2.2.6.u.-.T 4 % & ; > 8 q 1 & % - 4 8 q y v 2 & * p.p.p.p.p.p.p.p.p.",
"p.p.p.p.p.p.p.p.p.p.& < 6 y q 3 6 q 6 4 ; & % ; ^ u.u.6.;.2.2.2.X.V < o @ % % : : > 1 % & 1 q 6 4 8 6 v 4 & - p.p.p.p.p.p.p.p.p.",
"p.p.p.p.p.p.p.p.p.- & 1 l y 6 4 q 6 2 & & * @ 4 u.6.2.2.2.2.2.u.K . # + $ , J #.l + % & 2 6 4 6 4 : 4 l 6 ; & p.p.p.p.p.p.p.p.p.",
"p.p.p.p.p.p.p.p.p.- & 3 l 6 q 6 4 ; & * * = @ , 6.u.u.>.<.2.;.u.A   % g ) 6.u.u.4 o ; 4 y 4 y 3 * # 4 l l : & p.p.p.p.p.p.p.p.p.",
"p.p.p.p.p.p.p.p.p.* & 4 l y 6 2 = & - * * * & q 6.~ M X.6.2.2.u.R b  .u.u.8.6.u.q % q q q q 2 & % 1 q y l 2 & * p.p.p.p.p.p.p.p.",
"p.p.p.p.p.p.p.p.p.= * q l 8 : & * ; = & * 4 3 : 4 @ # @.6.2.2.2.8.6.6.6.6.u.u.] 3 3 6 6 4 < % & 3 6 q 6 l 2 & * p.p.p.p.p.p.p.p.",
"p.p.p.p.p.p.p.p.p.* * 6 g q & * - & & 1 q 6 6 ; % o % @.6.2.2.2.8.8.u.u.:.Q w * : 4 3 3 - % * 4 6 4 6 6 v 3 & * p.p.p.p.p.p.p.p.",
"p.p.p.p.p.p.p.p.p.& * 8 v 4 * * & * 3 6 q q q * # 4 ( 2.2.2.2.<.6.u. .V ; % O @ @ O O O % : q q q 4 3 y l 3 & * p.p.p.p.p.p.p.p.",
"p.p.p.p.p.p.p.p.p.* ; 8 l q & & 1 q 6 q q 3 & * ` 6.u.8.;.;.2.6.| y # X 1 : : L Y L K S : 3 q 8 4 * < y l 3 & * p.p.p.p.p.p.p.p.",
"p.p.p.p.p.p.p.p.p.* * 8 l 4 * > q q 6 q : & + 4 u.u.6.6.2.2.<.u.F . & 4 g & w u.u.u.u.6., 2 w 3 = % 1 y v 3 & * p.p.p.p.p.p.p.p.",
"p.p.p.p.p.p.p.p.p.* * 4 l 8 4 8 q 6 3 - & = % , u.u.6.:.2.;.<.u.L % q 8 q $ g u.6.2.6.#.3 4 3 & & & 1 l v 2 & - p.p.p.p.p.p.p.p.",
"p.p.p.p.p.p.p.p.p.= * 4 g 8 q q q 2 & = * = @ 4 #.U 4 O.6.2.2.u.P * 6 6 4 O C 6.2.2.6. .> < & * & < q w l : & p.p.p.p.p.p.p.p.p.",
"p.p.p.p.p.p.p.p.p.* & 3 l 8 q 3 ; % * = & : 1 : , & % $.u.2.2.u.P * l 3 * O ^ u.2.2.u.' % & & & 1 q l 6 y 1 & p.p.p.p.p.p.p.p.p.",
"p.p.p.p.p.p.p.p.p.* & 1 l l 4 & & - & & > 5 8 4 , ; ; #.6.2.2.6.U * 2 & @ ; $.6.;.;.u.Y O & * 2 6 q 6 y q * * p.p.p.p.p.p.p.p.p.",
"p.p.p.p.p.p.p.p.p.p.& - y v 4 * * & * 4 8 4 8 q ; @ : #.6.2.2.u.Y @ & = O b u.6.2.2.u.b X - 4 6 4 q 6 v 3 & * p.p.p.p.p.p.p.p.p.",
"p.p.p.p.p.p.p.p.p.p.* & 4 l g ; % 1 4 6 q q 2 * & $ ; $.8.<.2.u.U o * : @ ` u.<.2.6.6.: & q 6 6 4 4 8 l 1 & * p.p.p.p.p.p.p.p.p.",
"p.p.p.p.p.p.p.p.p.p.* & : l l 4 1 q q 6 q 1 & & * * : $.6.<.2.u.P @ 4 $ b u.<.<.2.u.~ @ q q 6 3 1 8 g q - = p.p.p.p.p.p.p.p.p.p.",
"p.p.p.p.p.p.p.p.p.p.p.* * 6 l y 6 q 6 3 ; & & * 4 > ; $.6.2.2.u.S @ $ 4 2.6.2.<.6.6., * 6 6 3 & 2 l v 3 & * p.p.p.p.p.p.p.p.p.p.",
"p.p.p.p.p.p.p.p.p.p.p.- & 2 v 6 6 4 2 & & & < 4 g : ; $.6.2.2.u.L $ B 6.u.>.2.<.u.Q @ q y 2 % * l w l < & p.p.p.p.p.p.p.p.p.p.p.",
"p.p.p.p.p.p.p.p.p.p.p.p.= = 8 y l 3 % & & 2 6 q 8 : ; #.6.2.2.2.@.#.u.6.<.2.<.u.:.* > 8 : % & q g g 3 & * p.p.p.p.p.p.p.p.p.p.p.",
"p.p.p.p.p.p.p.p.p.p.p.p.* & : g 8 6 < & 3 6 q 6 3 & ; #.6.2.;.2.6.6.2.2.2.>.6.6., ; q * % & 3 l l q * & p.p.p.p.p.p.p.p.p.p.p.p.",
"p.p.p.p.p.p.p.p.p.p.p.p.p.* & 4 v w q 4 q 4 q 2 * % ; @.6.2.2.2.6.2.2.2.2.u.;.4 & , * & = 2 l y v 1 % * p.p.p.p.p.p.p.p.p.p.p.p.",
"p.p.p.p.p.p.p.p.p.p.p.p.p.* & * q l w l 4 4 1 & & $ : :.u.2.2.2.2.2.6.u.u._ : & > & & & 2 y y c 2 & * p.p.p.p.p.p.p.p.p.p.p.p.p.",
"p.p.p.p.p.p.p.p.p.p.p.p.p.p.; & - l l w y 1 % % < & : 6.6.8.6.6.u.u.6.' M * * 1 & & & 3 l w v 3 & * p.p.p.p.p.p.p.p.p.p.p.p.p.p.",
"p.p.p.p.p.p.p.p.p.p.p.p.p.p.p.- & ; 8 g y y 2 < 4 : : | O.O. .] Q F 4 ; : 2 - % & < 4 v w l 4 & & - p.p.p.p.p.p.p.p.p.p.p.p.p.p.",
"p.p.p.p.p.p.p.p.p.p.p.p.p.p.p.p.* & * q l w y y 8 4 ; % % & & * * * , q 1 % % < 2 s l w v 3 & * * p.p.p.p.p.p.p.p.p.p.p.p.p.p.p.",
"p.p.p.p.p.p.p.p.p.p.p.p.p.p.p.p.p.* & * 3 v l w 8 w 4 * & & : 4 4 q 3 - & 1 4 6 c y v 6 1 & = * p.p.p.p.p.p.p.p.p.p.p.p.p.p.p.p.",
"p.p.p.p.p.p.p.p.p.p.p.p.p.p.p.p.p.p.* * & 1 6 v l 8 y l 4 4 y 6 q q , 3 8 g l y v l 4 * & * p.p.p.p.p.p.p.p.p.p.p.p.p.p.p.p.p.p.",
"p.p.p.p.p.p.p.p.p.p.p.p.p.p.p.p.p.p.p.p.= & * 1 q g v l l l 6 y w 8 l v l l g w 3 < & & - p.p.p.p.p.p.p.p.p.p.p.p.p.p.p.p.p.p.p.",
"p.p.p.p.p.p.p.p.p.p.p.p.p.p.p.p.p.p.p.p.p.* * & & : 3 4 8 l l l l l w w 6 4 2 < & & * p.p.p.p.p.p.p.p.p.p.p.p.p.p.p.p.p.p.p.p.p.",
"p.p.p.p.p.p.p.p.p.p.p.p.p.p.p.p.p.p.p.p.p.p.p.* * & & * ; : : 1 1 2 1 < < & & & - p.p.p.p.p.p.p.p.p.p.p.p.p.p.p.p.p.p.p.p.p.p.p.",
"p.p.p.p.p.p.p.p.p.p.p.p.p.p.p.p.p.p.p.p.p.p.p.p.p.p.- - & & & & & & & & * * - p.p.p.p.p.p.p.p.p.p.p.p.p.p.p.p.p.p.p.p.p.p.p.p.p.",
"p.p.p.p.p.p.p.p.p.p.p.p.p.p.p.p.p.p.p.p.p.p.p.p.p.p.p.p.p.p.p.p.p.p.p.p.p.p.p.p.p.p.p.p.p.p.p.p.p.p.p.p.p.p.p.p.p.p.p.p.p.p.p.p.",
"p.p.p.p.p.p.p.p.p.p.p.p.p.p.p.p.p.p.p.p.p.p.p.p.p.p.p.p.p.p.p.p.p.p.p.p.p.p.p.p.p.p.p.p.p.p.p.p.p.p.p.p.p.p.p.p.p.p.p.p.p.p.p.p.",
"p.p.p.p.p.p.p.p.p.p.p.p.p.p.p.p.p.p.p.p.p.p.p.p.p.p.p.p.p.p.p.p.p.p.p.p.p.p.p.p.p.p.p.p.p.p.p.p.p.p.p.p.p.p.p.p.p.p.p.p.p.p.p.p.",
"p.p.p.p.p.p.p.p.p.p.p.p.p.p.p.p.p.p.p.p.p.p.p.p.p.p.p.p.p.p.p.p.p.p.p.p.p.p.p.p.p.p.p.p.p.p.p.p.p.p.p.p.p.p.p.p.p.p.p.p.p.p.p.p.",
"p.p.p.p.p.p.p.p.p.p.p.p.p.p.p.p.p.p.p.p.p.p.p.p.p.p.p.p.p.p.p.p.p.p.p.p.p.p.p.p.p.p.p.p.p.p.p.p.p.p.p.p.p.p.p.p.p.p.p.p.p.p.p.p.",
"p.p.p.p.p.p.p.p.p.p.p.p.p.p.p.p.p.p.p.p.p.p.p.p.p.p.p.p.p.p.p.p.p.p.p.p.p.p.p.p.p.p.p.p.p.p.p.p.p.p.p.p.p.p.p.p.p.p.p.p.p.p.p.p.",
"p.p.p.p.p.p.p.p.p.p.p.p.p.p.p.p.p.p.p.p.p.p.p.p.p.p.p.p.p.p.p.p.p.p.p.p.p.p.p.p.p.p.p.p.p.p.p.p.p.p.p.p.p.p.p.p.p.p.p.p.p.p.p.p."
};
