/* XPM */
static char *_6[] = {
/* columns rows colors chars-per-pixel */
"16 16 83 1 ",
"  c #D92121",
". c #DB2727",
"X c #DC2D2D",
"o c #DC3030",
"O c #DD3131",
"+ c #DC3232",
"@ c #DF3737",
"# c #DC3A3A",
"$ c #DE3A3A",
"% c #DD3D3D",
"& c #DF3D3D",
"* c #DD3E3E",
"= c #DF3F3F",
"- c #DF4141",
"; c #DF4242",
": c #DE4343",
"> c #DF4646",
", c #DF4949",
"< c #DF4B4B",
"1 c #E04141",
"2 c #E04242",
"3 c #E04545",
"4 c #E04646",
"5 c #E04747",
"6 c #E04949",
"7 c #E04A4A",
"8 c #E04B4B",
"9 c #E04E4E",
"0 c #E14E4E",
"q c #E14F4F",
"w c #E15050",
"e c #E15151",
"r c #E15252",
"t c #E15454",
"y c #E25454",
"u c #E15656",
"i c #E15757",
"p c #E25656",
"a c #E25B5B",
"s c #E25C5C",
"d c #E25D5D",
"f c #E36060",
"g c #E26161",
"h c #E36161",
"j c #E26262",
"k c #E36363",
"l c #E36464",
"z c #E36666",
"x c #E36868",
"c c #E36969",
"v c #E36A6A",
"b c #E46868",
"n c #E46B6B",
"m c #E46C6C",
"M c #E46F6F",
"N c #E57373",
"B c #E57878",
"V c #E67C7C",
"C c #E88585",
"Z c #EA9898",
"A c #EB9B9B",
"S c #EC9898",
"D c #EB9C9C",
"F c #EDA1A1",
"G c #ECA6A6",
"H c #ECA8A8",
"J c #EEB3B3",
"K c #EEB9B9",
"L c #F1BCBC",
"P c #F1BFBF",
"I c #F0C0C0",
"U c #F1C2C2",
"Y c #F1C7C7",
"T c #F1C9C9",
"R c #F2C8C8",
"E c #F5DBDB",
"W c #FBF9F9",
"Q c #FAFCFC",
"! c #FBFFFF",
"~ c #FCFDFD",
"^ c #FCFFFF",
"/ c white",
"( c None",
/* pixels */
"((((((((((((((((",
"((((((((((((((((",
"((((((wppw((((((",
"((((1bw$xgk3((((",
"(((=z3wC+Xzm3(((",
"(((aa.B~IKwpl(((",
"((1mw>Y~LDa,z6((",
"((wg$3IWIH-6bp((",
"((wg30T~SxJppp((",
"((6x11HQ A~>aw((",
"(((gdONQB~T=b=((",
"(((wmOV~~E=pw(((",
"((((pgxFA,wd((((",
"(((((0a-,aw(((((",
"((((((((((((((((",
"(((((((((((((((("
};
